
<svg width="1024" height="1024" viewBox="0 0 1024 1024" fill="none" xmlns="http://www.w3.org/2000/svg">
<rect width="1024" height="1024" fill="#FFF0DA"/>
<path d="M881.677 400.562C887.211 401.088 892.243 403.993 895.465 408.523C899.163 413.721 898.933 422.878 898.472 441.191L895.841 545.774C895.231 570.027 894.926 582.154 890.07 587.442C885.859 592.027 879.682 594.277 873.509 593.476C866.389 592.552 858.354 583.464 842.284 565.288L840.972 563.803L824.65 592.072C814.046 610.439 790.561 616.732 772.194 606.128C753.828 595.524 747.536 572.039 758.14 553.673L774.463 525.399L772.506 525.002C748.73 520.173 736.842 517.758 732.481 512.054C728.701 507.108 727.562 500.634 729.427 494.695C731.578 487.845 741.928 481.518 762.627 468.863L851.883 414.293C867.512 404.738 875.327 399.96 881.677 400.562Z" fill="#792200"/>
<path d="M377.549 258.56C426.829 258.56 466.487 272.875 496.525 301.504C526.562 330.134 548.152 367.211 561.293 412.736L609.869 325.44C613.624 318.4 619.021 312.768 626.061 308.544C633.57 303.851 641.549 301.504 649.997 301.504C662.669 301.504 673.464 305.963 682.381 314.88C691.298 323.798 695.757 334.357 695.757 346.56C695.757 354.539 692.941 364.16 687.309 375.424C639.906 460.843 604.706 522.326 581.709 559.873C592.504 629.803 612.92 664.768 642.957 664.768C648.589 664.768 653.517 663.829 657.741 661.952C661.965 660.074 667.597 657.259 674.637 653.504C679.33 650.688 684.493 648.342 690.125 646.464C695.757 644.118 701.154 642.944 706.317 642.944C718.519 642.944 729.08 647.637 737.997 657.024C747.384 666.411 752.077 676.737 752.077 688C752.077 700.203 746.445 711.702 735.181 722.497C724.386 732.822 710.072 741.035 692.237 747.136C674.872 753.238 657.037 756.289 638.733 756.289C581.474 756.288 539.938 723.669 514.125 658.432C454.989 729.771 389.048 765.44 316.301 765.44C279.224 765.44 246.371 756.523 217.741 738.688C189.112 720.853 166.818 695.979 150.861 664.064C134.903 632.149 126.925 595.306 126.925 553.536C126.925 505.194 137.25 458.261 157.901 412.736C179.021 367.211 208.589 330.134 246.605 301.504C285.09 272.875 328.738 258.56 377.549 258.56ZM376.141 350.08C347.042 350.08 320.29 359.701 295.885 378.944C271.949 398.187 252.941 423.531 238.861 454.976C225.25 486.421 218.445 519.275 218.445 553.536C218.445 591.552 227.128 621.12 244.493 642.24C261.859 663.36 285.794 673.92 316.301 673.92C343.522 673.92 368.397 665.941 390.925 649.984C413.453 634.027 434.808 612.438 454.989 585.216C464.845 571.606 475.405 556.118 486.669 538.752L483.149 497.216C479.863 452.161 469.773 416.491 452.877 390.208C435.981 363.457 410.402 350.08 376.141 350.08Z" fill="#FF5C1C"/>
<path d="M582.1 559.232C581.969 559.446 581.839 559.66 581.709 559.873C592.504 629.803 612.92 664.768 642.957 664.768C647.505 664.768 651.592 664.154 655.222 662.93L611.743 753.637C568.23 744.668 535.691 712.934 514.125 658.432C513.738 658.899 513.349 659.364 512.961 659.828L512.875 659.632C539.5 625.342 554.855 603.541 582.044 559.157L582.1 559.232Z" fill="url(#paint0_linear_2455_8751)"/>
<path d="M486.002 539.817L485.989 539.796C486.177 539.508 486.365 539.219 486.553 538.929C486.37 539.224 486.187 539.521 486.002 539.817ZM470.039 281.417C479.571 287.067 488.4 293.761 496.525 301.504C526.557 330.129 548.144 367.199 561.286 412.714C534.864 460.487 517.929 488.515 486.668 538.745L483.149 497.216C479.863 452.161 469.773 416.491 452.877 390.208C443.849 375.915 432.342 365.44 418.357 358.784L470.039 281.417Z" fill="url(#paint1_linear_2455_8751)"/>
<defs>
<linearGradient id="paint0_linear_2455_8751" x1="546.263" y1="596.665" x2="620.57" y2="716.515" gradientUnits="userSpaceOnUse">
<stop stop-color="#E64404"/>
<stop offset="1" stop-color="#FF5C1C"/>
</linearGradient>
<linearGradient id="paint1_linear_2455_8751" x1="549.179" y1="473.234" x2="429.329" y2="398.926" gradientUnits="userSpaceOnUse">
<stop stop-color="#F34500"/>
<stop offset="1" stop-color="#FF5C1C"/>
</linearGradient>
</defs>
</svg>
